# xmcd
#
# Track frame offsets: 
#        150
#        16147
#        47679
#        67330
#        90951
#
# Disc length: 1407 seconds
#
# Revision: 0
# Processed by: cddbd v1.5.2PL0 Copyright (c) Steve Scherf et al.
# Submitted via: ExactAudioCopy v0.95b3
#
DISCID=36057d05
DTITLE=Some people ruined it all - Martin and his Rhythm Kings
DYEAR=2007
DGENRE=Blues
TTITLE0=Too expensive
TTITLE1=Early in the morning
TTITLE2=Cold coffee and no cigars
TTITLE3=Take Your time
TTITLE4=I left for another angel
EXTD=
EXTT0=
EXTT1=
EXTT2=
EXTT3=
EXTT4=
PLAYORDER=
